<?xml version="1.0" encoding="UTF-8"?>
<!DOCTYPE svg PUBLIC "-//W3C//DTD SVG 1.0//EN" "http://www.w3.org/TR/2001/REC-SVG-20010904/DTD/svg10.dtd">
<!-- Creator: CorelDRAW X7 -->
<svg xmlns="http://www.w3.org/2000/svg" xml:space="preserve" width="28.2311mm" height="56.7463mm" version="1.0" style="shape-rendering:geometricPrecision; text-rendering:geometricPrecision; image-rendering:optimizeQuality; fill-rule:evenodd; clip-rule:evenodd"
viewBox="0 0 600 1206"
 xmlns:xlink="http://www.w3.org/1999/xlink">
 <defs>
  <style type="text/css">
   <![CDATA[
    .fil1 {fill:#05C55C}
    .fil0 {fill:white}
   ]]>
  </style>
 </defs>
 <g id="Camada_x0020_1">
  <metadata id="CorelCorpID_0Corel-Layer"/>
  <path class="fil0" d="M145 556c-4,-23 -6,-44 -11,-67 -6,-27 -29,-111 0,-126 20,-11 44,2 55,11 14,12 22,27 32,45 6,10 7,16 0,25 -6,9 -9,13 -15,23 -6,9 -56,86 -61,89zm273 120c21,-6 47,12 56,23 16,20 2,84 -6,102 -12,30 -24,59 -45,80 -6,5 -16,13 -16,23 1,9 10,19 21,17 26,-5 59,-73 69,-96 10,-23 11,-43 19,-66 55,0 47,49 47,97 0,33 -8,74 -13,104 -5,30 -14,64 -25,92 -12,33 -30,48 -49,67 -64,66 -97,58 -166,33 -15,-6 -26,-11 -40,-17l-41 -20c-43,-19 -105,-66 -138,-98 -42,-43 -67,-92 -52,-176 10,-57 44,-113 74,-162 41,-68 135,-216 186,-284 14,-18 34,-52 59,-58 31,-6 57,18 39,63 -9,22 -3,12 -17,41 -25,49 -77,135 -107,187 -14,25 -28,49 -44,74 -16,25 -29,49 -43,73 -7,11 -15,33 6,36 19,3 25,-19 32,-29 29,-48 58,-100 87,-148 7,-10 2,-12 18,-12 24,0 51,18 53,35 6,40 -47,132 -68,165 -7,12 -19,27 -3,38 19,12 29,-11 34,-21 25,-43 54,-89 66,-138 2,-8 4,-19 7,-25zm-77 -89c0,-8 23,-44 29,-55 27,-48 78,-128 68,-178 -9,-38 -58,-69 -109,-43 -24,12 -47,42 -60,64 -5,7 -12,19 -19,23 -14,-18 -31,-63 -81,-72 -22,-5 -47,0 -61,11 -35,29 -23,83 -17,120 4,20 8,41 13,63 3,17 8,51 7,70 -2,30 -7,34 -19,55 -34,59 -87,132 -91,215 -6,99 21,144 92,208 47,42 123,85 193,113 37,15 74,32 121,23 17,-3 41,-15 53,-23 39,-30 88,-76 102,-125 22,-75 47,-188 35,-263 -7,-47 -36,-67 -81,-72 -4,-58 -47,-79 -102,-82 -11,-19 -10,-20 -29,-34 -25,-17 -33,-12 -44,-18z"/>
  <g id="_2435281305152">
   <path class="fil1" d="M267 49c0,-5 0,-5 2,-9 9,-1 9,2 9,10 0,11 -1,6 12,9 13,4 26,17 26,30 1,12 -14,15 -21,7 -2,-4 -5,-19 -17,-20 1,13 0,25 1,38 6,3 15,4 21,7 31,16 26,63 -10,73 -2,1 -10,2 -11,3 -2,2 0,22 -1,27 -1,9 -11,9 -11,-5l0 -23c-13,-1 -23,-5 -30,-12 -32,-30 2,-51 10,-29 5,12 7,19 20,22l0 -41c-1,-3 -16,-5 -27,-13 -7,-5 -12,-14 -13,-27 0,-26 17,-36 40,-39l0 -8zm140 90c3,-48 -24,-90 -55,-113 -53,-39 -127,-33 -172,11 -55,53 -56,137 -5,190 51,54 137,57 190,5 11,-10 21,-22 29,-39 8,-18 11,-31 13,-54z"/>
   <path class="fil1" d="M279 178c15,0 27,-23 12,-34 -2,-2 -9,-5 -13,-6l1 40z"/>
   <path class="fil1" d="M267 110l0 -35c-9,3 -16,7 -17,17 0,11 8,16 17,18z"/>
  </g>
  <g id="_2435281304096">
   <path class="fil1" d="M418 676c-3,6 -4,16 -6,25 -12,49 -42,95 -66,138 -6,10 -16,33 -35,21 -16,-11 -3,-26 4,-38 20,-33 73,-126 68,-165 -3,-17 -29,-36 -53,-36 -16,1 -12,2 -18,13 -30,48 -59,100 -88,148 -7,10 -13,32 -32,29 -21,-3 -13,-25 -6,-36 14,-24 27,-49 43,-73 16,-25 30,-49 45,-75 29,-51 82,-138 106,-187 15,-29 8,-19 18,-42 18,-44 -8,-69 -40,-62 -24,6 -45,39 -59,58 -51,68 -145,216 -187,285 -29,49 -64,105 -74,162 -14,85 10,134 53,177 33,32 95,79 138,98l41 20c14,6 25,11 41,17 69,25 102,33 166,-33 19,-19 37,-35 49,-68 11,-28 20,-61 25,-92 5,-30 13,-71 13,-104 0,-48 8,-98 -48,-97 -7,23 -8,43 -18,66 -10,23 -43,91 -69,97 -11,2 -21,-8 -21,-18 0,-10 10,-18 15,-23 22,-21 33,-50 46,-80 8,-18 22,-82 6,-102 -10,-12 -35,-30 -57,-23z"/>
   <path class="fil1" d="M145 555c5,-2 55,-80 61,-89 6,-10 9,-14 15,-23 7,-9 6,-15 0,-25 -10,-18 -18,-33 -32,-45 -11,-9 -35,-22 -55,-11 -29,15 -6,99 0,126 5,23 7,44 11,67z"/>
  </g>
 </g>
</svg>
