<?xml version="1.0" encoding="UTF-8"?>
<!DOCTYPE svg PUBLIC "-//W3C//DTD SVG 1.0//EN" "http://www.w3.org/TR/2001/REC-SVG-20010904/DTD/svg10.dtd">
<!-- Creator: CorelDRAW X7 -->
<svg xmlns="http://www.w3.org/2000/svg" xml:space="preserve" width="28.3063mm" height="56.8218mm" version="1.0" style="shape-rendering:geometricPrecision; text-rendering:geometricPrecision; image-rendering:optimizeQuality; fill-rule:evenodd; clip-rule:evenodd"
viewBox="0 0 253 508"
 xmlns:xlink="http://www.w3.org/1999/xlink">
 <defs>
  <style type="text/css">
   <![CDATA[
    .str0 {stroke:black;stroke-width:0.681011}
    .fil1 {fill:#05C55C}
    .fil0 {fill:white}
   ]]>
  </style>
 </defs>
 <g id="Camada_x0020_1">
  <metadata id="CorelCorpID_0Corel-Layer"/>
  <path class="fil0 str0" d="M61 234c-1,-10 -2,-19 -4,-28 -3,-11 -12,-47 0,-53 8,-4 18,1 23,5 6,5 9,11 13,18 3,5 3,7 0,11 -2,4 -4,5 -6,9 -3,5 -24,37 -26,38zm115 50c9,-2 20,5 24,10 6,9 0,35 -3,43 -5,13 -10,25 -19,34 -2,2 -7,5 -6,9 0,4 4,9 8,8 11,-3 25,-31 29,-41 5,-10 5,-18 8,-28 23,0 20,21 20,41 0,14 -3,31 -5,44 -3,13 -6,27 -11,38 -5,14 -13,21 -21,29 -26,27 -40,24 -69,14 -7,-3 -11,-5 -17,-8l-17 -8c-18,-8 -45,-27 -58,-41 -18,-18 -29,-39 -22,-74 4,-24 18,-48 31,-68 17,-29 56,-91 78,-120 6,-7 14,-22 25,-24 13,-3 24,8 16,26 -4,10 -1,6 -7,18 -10,20 -32,57 -45,78 -6,11 -12,21 -18,31 -7,11 -13,21 -19,31 -3,5 -6,14 3,15 8,2 11,-8 13,-12 13,-20 25,-42 37,-62 3,-4 1,-5 8,-5 10,0 21,8 22,15 2,16 -20,55 -29,69 -3,5 -8,11 -1,16 8,5 12,-5 15,-9 10,-18 22,-37 27,-58 1,-3 2,-8 3,-11zm-32 -37c0,-3 9,-19 12,-23 11,-20 33,-54 28,-75 -3,-16 -24,-29 -45,-18 -10,5 -20,18 -26,27 -2,3 -5,8 -7,10 -6,-8 -14,-27 -35,-31 -9,-2 -19,0 -25,5 -15,12 -10,35 -7,50 1,9 3,18 5,27 1,7 3,21 3,29 -1,13 -3,15 -8,24 -14,24 -37,55 -38,90 -3,42 8,60 38,87 20,18 52,36 82,48 15,6 31,13 50,9 7,-1 18,-6 23,-9 16,-13 37,-32 43,-53 9,-31 19,-79 14,-110 -3,-20 -15,-29 -34,-30 -2,-25 -20,-34 -42,-35 -5,-8 -5,-9 -13,-14 -10,-8 -13,-6 -18,-8z"/>
  <g id="_2435281285984">
   <path class="fil1 str0" d="M112 21c0,-2 1,-2 2,-4 3,0 3,1 3,4 0,5 0,3 5,4 6,2 11,7 11,13 0,5 -6,6 -8,3 -2,-2 -3,-8 -8,-9 0,6 0,11 1,16 2,1 6,2 8,3 13,7 12,27 -4,31 -1,0 -4,1 -4,1 -1,1 0,9 -1,11 0,4 -5,4 -5,-1l0 -10c-5,-1 -9,-2 -12,-5 -13,-13 1,-22 4,-13 2,5 3,8 8,10l0 -18c0,-1 -6,-2 -11,-5 -3,-2 -5,-6 -5,-11 0,-11 7,-15 16,-17l0 -3zm59 38c2,-21 -10,-38 -23,-48 -22,-16 -53,-14 -72,5 -23,22 -24,57 -2,80 21,23 57,24 80,2 4,-4 8,-9 12,-16 3,-8 5,-14 5,-23z"/>
   <path class="fil1 str0" d="M117 75c7,0 12,-9 6,-14 -1,-1 -4,-2 -6,-3l0 17z"/>
   <path class="fil1 str0" d="M112 47l0 -15c-3,1 -6,3 -6,7 -1,5 3,7 6,8z"/>
  </g>
  <g id="_2435281286016">
   <path class="fil1" d="M176 284c-1,3 -2,7 -2,11 -6,21 -18,40 -28,58 -3,4 -7,14 -15,9 -6,-5 -1,-11 2,-16 8,-14 31,-53 28,-70 -1,-7 -12,-15 -22,-14 -7,0 -5,0 -8,5 -12,20 -24,42 -37,62 -2,4 -5,14 -13,12 -9,-1 -6,-10 -3,-15 6,-10 12,-20 19,-31 6,-10 12,-20 18,-31 13,-22 35,-58 45,-79 6,-12 4,-8 8,-17 7,-19 -4,-29 -17,-26 -10,2 -19,16 -25,24 -21,28 -61,91 -78,120 -13,20 -27,44 -32,68 -6,36 5,56 23,74 13,14 40,34 58,41l17 9c6,3 11,5 17,7 29,11 43,14 70,-14 8,-8 15,-14 21,-28 4,-12 8,-26 10,-39 2,-13 5,-30 5,-44 1,-20 4,-41 -20,-41 -3,10 -3,18 -7,28 -5,10 -19,39 -29,41 -5,1 -9,-4 -9,-8 0,-4 4,-7 6,-9 9,-9 14,-21 20,-34 3,-8 9,-35 2,-43 -4,-5 -15,-12 -24,-10z"/>
   <path class="fil1" d="M61 234c2,-1 23,-34 26,-38 3,-4 4,-5 6,-9 3,-4 3,-7 0,-11 -4,-8 -7,-14 -13,-19 -5,-4 -15,-9 -23,-5 -12,7 -3,42 0,54 2,9 3,18 4,28z"/>
  </g>
 </g>
</svg>
