<?xml version="1.0" encoding="UTF-8"?>
<!DOCTYPE svg PUBLIC "-//W3C//DTD SVG 1.1//EN" "http://www.w3.org/Graphics/SVG/1.1/DTD/svg11.dtd">
<!-- Creator: CorelDRAW X7 -->
<svg xmlns="http://www.w3.org/2000/svg" xml:space="preserve" width="54.8692mm" height="110.415mm" version="1.1" style="shape-rendering:geometricPrecision; text-rendering:geometricPrecision; image-rendering:optimizeQuality; fill-rule:evenodd; clip-rule:evenodd"
viewBox="0 0 4469 8993"
 xmlns:xlink="http://www.w3.org/1999/xlink">
 <defs>
  <style type="text/css">
   <![CDATA[
    .fil0 {fill:#CCCCCD}
   ]]>
  </style>
 </defs>
 <g id="Camada_x0020_1">
  <metadata id="CorelCorpID_0Corel-Layer"/>
  <path class="fil0" d="M1080 4147c-29,-171 -45,-327 -82,-495 -44,-202 -213,-826 -2,-938 148,-79 326,13 410,83 105,88 167,197 240,332 42,79 53,122 3,189 -51,68 -70,96 -115,167 -46,71 -420,645 -454,662zm2031 896c157,-47 349,89 418,172 122,149 16,626 -42,762 -94,218 -177,433 -339,592 -40,39 -117,96 -115,171 3,71 73,146 154,130 192,-39 438,-547 515,-720 76,-169 84,-319 137,-487 411,-4 354,363 354,722 0,243 -57,547 -96,773 -38,224 -107,475 -186,683 -92,245 -224,358 -367,504 -475,487 -722,432 -1232,242 -115,-42 -200,-77 -305,-127l-302 -147c-319,-139 -783,-488 -1025,-730 -317,-317 -501,-682 -391,-1311 73,-422 329,-839 550,-1206 307,-507 1005,-1610 1387,-2117 102,-135 254,-386 437,-426 237,-52 430,130 294,462 -69,170 -21,93 -128,306 -185,368 -573,1011 -794,1392 -109,190 -209,369 -328,554 -119,184 -217,366 -325,544 -52,84 -109,244 48,269 142,22 186,-140 236,-220 220,-353 434,-738 652,-1098 47,-78 14,-90 133,-91 179,-3 377,138 395,263 43,293 -353,984 -506,1229 -52,84 -143,200 -24,278 142,93 213,-81 255,-155 182,-318 403,-661 492,-1027 15,-60 25,-137 48,-186zm-575 -663c4,-60 174,-329 218,-407 199,-361 584,-957 504,-1327 -60,-280 -426,-512 -805,-322 -179,90 -351,316 -453,478 -32,51 -84,145 -137,169 -106,-129 -235,-463 -603,-536 -164,-33 -349,0 -455,87 -261,216 -170,613 -124,890 24,151 58,308 92,473 25,121 60,378 53,516 -12,229 -53,258 -144,415 -252,439 -645,980 -677,1601 -39,737 157,1069 686,1544 348,313 918,632 1439,842 274,109 554,238 899,172 126,-24 309,-109 397,-174 293,-218 653,-565 762,-931 164,-554 346,-1397 258,-1957 -55,-351 -269,-499 -602,-533 -33,-432 -355,-591 -758,-609 -87,-146 -81,-153 -223,-254 -183,-130 -238,-94 -327,-137z"/>
  <g id="_2224259244928">
   <path class="fil0" d="M1853 366c0,-37 2,-41 20,-69 65,-7 67,15 67,75 0,81 -10,41 85,69 100,29 194,124 197,219 3,90 -110,118 -156,52 -19,-27 -41,-141 -126,-145 1,93 -4,187 4,280 42,22 110,32 157,55 230,116 197,471 -75,545 -15,4 -74,10 -81,18 -15,15 -2,164 -7,200 -9,68 -85,73 -85,-32l0 -170c-94,-12 -166,-39 -221,-92 -238,-228 14,-377 76,-220 35,89 48,143 145,168l0 -310c-8,-22 -121,-34 -201,-95 -49,-36 -91,-104 -92,-198 -3,-193 124,-269 293,-290l0 -60zm1043 668c23,-359 -178,-667 -410,-841 -390,-291 -944,-245 -1281,83 -410,398 -416,1019 -38,1416 383,404 1022,420 1417,38 80,-77 155,-164 214,-291 63,-138 87,-235 98,-405z"/>
   <path class="fil0" d="M1941 1325c118,-2 203,-168 95,-252 -19,-16 -68,-39 -96,-43l1 295z"/>
   <path class="fil0" d="M1853 820l0 -259c-68,17 -120,47 -122,123 -2,81 54,118 122,136z"/>
  </g>
 </g>
</svg>
