<?xml version="1.0" encoding="UTF-8"?>
<!DOCTYPE svg PUBLIC "-//W3C//DTD SVG 1.1//EN" "http://www.w3.org/Graphics/SVG/1.1/DTD/svg11.dtd">
<!-- Creator: CorelDRAW X7 -->
<svg xmlns="http://www.w3.org/2000/svg" xml:space="preserve" width="54.8692mm" height="110.515mm" version="1.1" style="shape-rendering:geometricPrecision; text-rendering:geometricPrecision; image-rendering:optimizeQuality; fill-rule:evenodd; clip-rule:evenodd"
viewBox="0 0 4469 9002"
 xmlns:xlink="http://www.w3.org/1999/xlink">
 <defs>
  <style type="text/css">
   <![CDATA[
    .fil1 {fill:#010103}
    .fil0 {fill:#0B050A}
   ]]>
  </style>
 </defs>
 <g id="Camada_x0020_1">
  <metadata id="CorelCorpID_0Corel-Layer"/>
  <path class="fil0" d="M1080 4155c-29,-171 -45,-327 -82,-495 -44,-201 -213,-826 -2,-938 148,-79 326,13 410,83 105,88 167,198 240,332 42,79 53,122 3,189 -51,68 -70,96 -115,167 -46,71 -420,645 -454,662zm2031 896c157,-47 349,89 418,172 122,149 16,626 -42,762 -94,218 -177,434 -339,592 -40,39 -117,96 -115,171 3,71 73,147 154,130 192,-39 438,-547 515,-720 76,-169 84,-319 137,-487 411,-4 354,363 354,722 0,244 -57,547 -96,773 -38,225 -107,475 -186,684 -92,244 -224,357 -367,503 -475,487 -722,432 -1232,242 -115,-42 -200,-77 -305,-127l-302 -147c-319,-138 -783,-488 -1025,-730 -317,-317 -501,-682 -391,-1311 73,-422 329,-839 550,-1206 307,-507 1005,-1610 1387,-2117 102,-135 254,-386 437,-426 237,-52 430,130 294,462 -69,170 -21,94 -128,306 -185,368 -573,1011 -794,1392 -109,190 -209,369 -328,554 -119,185 -217,366 -325,545 -52,84 -109,243 48,268 142,22 186,-140 236,-220 220,-353 434,-738 652,-1098 47,-78 14,-90 133,-91 179,-3 377,138 395,263 43,293 -353,984 -506,1229 -52,84 -143,200 -24,278 142,93 213,-81 255,-155 182,-318 403,-660 492,-1027 15,-60 25,-137 48,-186zm-575 -662c4,-61 174,-330 218,-408 199,-361 584,-957 504,-1326 -60,-280 -426,-513 -805,-323 -179,90 -351,316 -453,478 -32,51 -84,145 -137,170 -106,-130 -235,-464 -603,-537 -164,-33 -349,0 -455,87 -261,217 -170,614 -124,891 24,150 58,307 92,472 25,121 60,378 53,516 -12,229 -53,258 -144,416 -252,438 -645,979 -677,1600 -39,737 157,1069 686,1544 348,313 918,632 1439,842 274,110 554,239 899,173 126,-25 309,-109 397,-175 293,-218 653,-565 762,-930 164,-555 346,-1398 258,-1958 -55,-351 -269,-499 -602,-533 -33,-432 -355,-591 -758,-609 -87,-146 -81,-153 -223,-254 -183,-130 -238,-94 -327,-136z"/>
  <g id="_2224053920320">
   <path class="fil1" d="M1779 366c0,-37 3,-41 21,-69 64,-7 67,15 67,75 0,81 -10,41 85,69 100,29 194,124 197,219 3,90 -110,118 -156,52 -19,-27 -41,-141 -126,-145 0,93 -5,187 4,280 42,22 110,32 156,55 231,116 197,471 -74,545 -16,4 -74,10 -82,18 -14,15 -2,164 -6,200 -9,68 -86,73 -86,-32l1 -170c-94,-12 -167,-39 -221,-92 -238,-228 14,-377 76,-220 35,89 48,143 144,168l1 -310c-8,-22 -121,-34 -202,-95 -48,-36 -90,-104 -91,-198 -3,-193 124,-269 292,-290l0 -60zm1044 668c23,-359 -178,-667 -411,-841 -389,-291 -943,-245 -1281,83 -409,398 -416,1019 -37,1416 383,404 1022,420 1416,38 80,-77 155,-164 214,-291 64,-138 88,-235 99,-405z"/>
   <path class="fil1" d="M1867 1325c119,-2 204,-168 96,-252 -20,-16 -68,-39 -96,-43l0 295z"/>
   <path class="fil1" d="M1780 820l-1 -259c-67,17 -119,47 -121,123 -3,81 54,118 122,136z"/>
  </g>
 </g>
</svg>
