<?xml version="1.0" encoding="UTF-8"?>
<!DOCTYPE svg PUBLIC "-//W3C//DTD SVG 1.1//EN" "http://www.w3.org/Graphics/SVG/1.1/DTD/svg11.dtd">
<!-- Creator: CorelDRAW X7 -->
<svg xmlns="http://www.w3.org/2000/svg" xml:space="preserve" width="50mm" height="50mm" version="1.1" style="shape-rendering:geometricPrecision; text-rendering:geometricPrecision; image-rendering:optimizeQuality; fill-rule:evenodd; clip-rule:evenodd"
viewBox="0 0 3403 3403"
 xmlns:xlink="http://www.w3.org/1999/xlink">
 <defs>
  <style type="text/css">
   <![CDATA[
    .fil1 {fill:black}
    .fil0 {fill:#05C55C}
   ]]>
  </style>
 </defs>
 <g id="Camada_x0020_1">
  <metadata id="CorelCorpID_0Corel-Layer"/>
  <rect class="fil0" width="3403" height="3403"/>
  <g id="_2224252564944">
   <path class="fil1" d="M1320 1586c-10,-57 -15,-108 -27,-164 -15,-67 -71,-273 -1,-310 49,-27 108,4 136,27 34,29 55,65 79,110 14,26 18,40 1,63 -17,22 -23,31 -38,55 -15,23 -139,213 -150,219zm672 297c52,-16 115,29 138,56 41,50 6,207 -14,253 -31,72 -58,143 -112,196 -13,12 -39,31 -38,56 1,24 24,49 51,43 64,-13 145,-181 171,-238 25,-56 27,-106 45,-161 136,-2 117,120 117,239 0,80 -19,181 -32,255 -12,75 -35,158 -61,227 -31,81 -75,118 -122,166 -157,161 -239,143 -408,81 -38,-15 -66,-26 -101,-43l-99 -48c-106,-46 -260,-162 -340,-242 -105,-105 -166,-225 -129,-434 24,-140 109,-278 182,-399 101,-168 333,-533 459,-700 34,-45 84,-128 145,-142 78,-17 142,43 97,153 -23,57 -7,31 -43,102 -61,121 -189,334 -262,460 -37,63 -70,123 -109,184 -39,61 -72,121 -108,180 -17,28 -36,81 16,89 47,7 62,-46 78,-73 73,-117 144,-244 216,-363 16,-26 5,-30 45,-31 58,0 124,46 130,88 14,97 -117,325 -167,406 -18,28 -48,66 -8,92 47,31 70,-27 84,-51 60,-105 134,-219 163,-340 5,-20 8,-45 16,-61zm-190 -220c1,-20 57,-109 72,-135 66,-119 193,-316 166,-439 -20,-92 -141,-169 -266,-106 -59,29 -116,104 -150,158 -11,17 -28,48 -45,56 -35,-43 -78,-154 -200,-178 -54,-11 -115,0 -150,29 -87,72 -57,203 -42,295 9,50 20,102 31,156 8,40 20,125 17,171 -3,76 -17,85 -47,138 -83,145 -214,324 -224,529 -13,244 52,354 227,511 115,104 304,210 476,279 91,36 183,79 297,57 42,-8 103,-36 132,-58 97,-72 216,-187 252,-308 55,-183 115,-462 86,-648 -19,-116 -89,-165 -200,-176 -10,-143 -117,-196 -251,-201 -28,-49 -26,-51 -73,-85 -61,-43 -79,-31 -108,-45z"/>
   <g>
    <path class="fil1" d="M1620 335c0,-13 1,-14 7,-23 21,-2 22,5 22,25 0,26 -3,13 28,22 33,10 64,41 65,73 1,30 -36,39 -51,17 -7,-9 -14,-47 -42,-48 0,31 -2,62 1,93 14,7 37,10 52,18 76,38 65,156 -25,180 -5,2 -24,4 -27,6 -4,5 0,54 -2,66 -3,23 -28,25 -28,-10l0 -56c-31,-4 -55,-13 -73,-31 -79,-75 5,-125 25,-72 12,29 16,47 48,55l0 -103c-2,-7 -40,-11 -67,-31 -16,-12 -29,-35 -30,-66 -1,-64 41,-89 97,-96l0 -19zm345 221c8,-119 -59,-221 -136,-279 -129,-96 -312,-81 -424,28 -135,131 -137,337 -12,469 127,133 338,138 469,12 26,-26 51,-54 71,-96 21,-46 29,-78 32,-134z"/>
    <path class="fil1" d="M1649 652c39,-1 67,-56 32,-84 -7,-5 -23,-12 -32,-14l0 98z"/>
    <path class="fil1" d="M1620 485l0 -86c-22,6 -40,15 -40,41 -1,27 18,39 40,45z"/>
   </g>
  </g>
 </g>
</svg>
