<?xml version="1.0" encoding="UTF-8"?>
<!DOCTYPE svg PUBLIC "-//W3C//DTD SVG 1.1//EN" "http://www.w3.org/Graphics/SVG/1.1/DTD/svg11.dtd">
<!-- Creator: CorelDRAW X7 -->
<svg xmlns="http://www.w3.org/2000/svg" xml:space="preserve" width="50mm" height="50mm" version="1.1" style="shape-rendering:geometricPrecision; text-rendering:geometricPrecision; image-rendering:optimizeQuality; fill-rule:evenodd; clip-rule:evenodd"
viewBox="0 0 1422 1422"
 xmlns:xlink="http://www.w3.org/1999/xlink">
 <defs>
  <style type="text/css">
   <![CDATA[
    .fil1 {fill:black}
    .fil0 {fill:url(#id0)}
   ]]>
  </style>
  <linearGradient id="id0" gradientUnits="userSpaceOnUse" x1="877.27" y1="26.6481" x2="544.419" y2="1395.04">
   <stop offset="0" style="stop-opacity:1; stop-color:#28F078"/>
   <stop offset="0.45098" style="stop-opacity:1; stop-color:#1FB75E"/>
   <stop offset="1" style="stop-opacity:1; stop-color:#157D44"/>
  </linearGradient>
 </defs>
 <g id="Camada_x0020_1">
  <metadata id="CorelCorpID_0Corel-Layer"/>
  <polygon class="fil0" points="0,0 1422,0 1422,1422 0,1422 "/>
  <g id="_2224056293952">
   <path class="fil1" d="M551 662c-4,-23 -6,-45 -11,-68 -6,-28 -30,-114 0,-130 20,-11 45,2 56,12 15,12 23,27 33,46 6,11 8,17 1,26 -7,9 -10,13 -16,23 -6,10 -58,89 -63,91zm281 124c22,-6 48,13 58,24 17,21 2,87 -6,105 -13,31 -25,60 -47,82 -5,6 -16,14 -16,24 1,10 10,20 22,18 26,-5 60,-76 71,-100 10,-23 11,-44 19,-67 57,-1 49,50 49,100 0,34 -8,76 -14,107 -5,31 -14,65 -25,94 -13,34 -31,50 -51,70 -66,67 -100,60 -170,33 -16,-6 -28,-10 -43,-17l-41 -21c-44,-19 -109,-67 -142,-100 -44,-44 -69,-95 -54,-182 10,-58 45,-116 76,-166 42,-71 139,-223 192,-293 14,-19 35,-53 60,-59 33,-7 60,18 41,64 -10,23 -3,13 -18,42 -26,51 -79,140 -110,193 -15,26 -29,51 -45,76 -17,26 -30,51 -45,75 -7,12 -15,34 7,38 19,3 25,-20 32,-31 31,-49 60,-102 90,-152 7,-10 2,-12 19,-12 24,-1 52,19 54,36 6,41 -48,136 -70,170 -7,12 -19,28 -3,39 20,12 30,-12 35,-22 26,-44 56,-91 68,-142 2,-8 4,-19 7,-26zm-79 -91c0,-9 24,-46 30,-57 27,-49 80,-132 69,-183 -8,-39 -59,-71 -111,-45 -25,13 -48,44 -63,67 -4,7 -11,20 -19,23 -14,-18 -32,-64 -83,-74 -23,-5 -48,0 -63,12 -36,30 -23,85 -17,123 3,21 8,42 13,65 3,17 8,52 7,72 -2,31 -7,35 -20,57 -35,61 -89,135 -93,221 -6,102 21,148 94,214 49,43 127,87 199,116 38,15 77,33 125,24 17,-3 42,-15 55,-24 40,-30 90,-78 105,-129 23,-76 48,-193 36,-270 -8,-49 -38,-69 -84,-74 -4,-60 -49,-82 -104,-84 -12,-20 -12,-21 -31,-35 -26,-18 -33,-13 -45,-19z"/>
   <g>
    <path class="fil1" d="M677 140c0,-5 0,-6 3,-10 8,-1 9,2 9,11 0,11 -2,5 12,9 13,4 26,17 27,30 0,13 -15,17 -22,8 -2,-4 -5,-20 -17,-20 0,12 -1,25 0,38 6,3 16,5 22,8 32,16 27,65 -10,75 -2,1 -11,2 -12,3 -2,2 0,22 0,27 -2,10 -12,10 -12,-4l0 -24c-13,-1 -23,-5 -31,-12 -33,-32 2,-52 11,-31 5,13 6,20 20,24l0 -43c-1,-3 -17,-5 -28,-13 -7,-5 -13,-15 -13,-28 0,-27 17,-37 41,-40l0 -8zm144 92c3,-49 -25,-92 -57,-116 -54,-40 -130,-34 -177,11 -57,55 -57,141 -5,196 53,56 141,58 196,5 11,-10 21,-22 29,-40 9,-19 12,-32 14,-56z"/>
    <path class="fil1" d="M689 272c16,0 28,-23 13,-35 -3,-2 -9,-5 -13,-5l0 40z"/>
    <path class="fil1" d="M677 202l0 -35c-10,2 -17,6 -17,17 0,11 7,16 17,18z"/>
   </g>
  </g>
 </g>
</svg>
